<svg width="16" height="16" viewBox="0 0 16 16" fill="none" xmlns="http://www.w3.org/2000/svg">
<path d="M5.87874 12.3914L6.00823 11.9084C5.89013 11.8767 5.76451 11.8895 5.65514 11.9441L5.87874 12.3914ZM2.66406 13.9987L2.16909 13.928C2.14279 14.1121 2.22084 14.2956 2.37171 14.4043C2.52258 14.5131 2.72133 14.5291 2.88767 14.4459L2.66406 13.9987ZM3.09953 10.9504L3.5945 11.0212C3.61854 10.8529 3.55542 10.6839 3.42694 10.5726L3.09953 10.9504ZM7.9987 13.1667C11.8469 13.1667 15.1654 10.6533 15.1654 7.33333H14.1654C14.1654 9.90436 11.5143 12.1667 7.9987 12.1667V13.1667ZM5.74925 12.8743C6.45771 13.0643 7.21412 13.1667 7.9987 13.1667V12.1667C7.30104 12.1667 6.63172 12.0756 6.00823 11.9084L5.74925 12.8743ZM2.88767 14.4459L6.10235 12.8386L5.65514 11.9441L2.44046 13.5515L2.88767 14.4459ZM2.60455 10.8797L2.16909 13.928L3.15904 14.0694L3.5945 11.0212L2.60455 10.8797ZM0.832031 7.33333C0.832031 8.89839 1.585 10.2998 2.77212 11.3283L3.42694 10.5726C2.41971 9.69988 1.83203 8.56004 1.83203 7.33333H0.832031ZM7.9987 1.5C4.15054 1.5 0.832031 4.01332 0.832031 7.33333H1.83203C1.83203 4.76231 4.48306 2.5 7.9987 2.5V1.5ZM15.1654 7.33333C15.1654 4.01332 11.8469 1.5 7.9987 1.5V2.5C11.5143 2.5 14.1654 4.76231 14.1654 7.33333H15.1654Z" fill="#8E99AD"/>
</svg>
