<svg width="56" height="94" viewBox="0 0 56 94" fill="none" xmlns="http://www.w3.org/2000/svg">
<path d="M18.0429 89.7416C17.8892 89.971 17.9506 90.2816 18.18 90.4352L21.9188 92.9395C22.1483 93.0932 22.4588 93.0318 22.6125 92.8023C22.7662 92.5729 22.7048 92.2623 22.4753 92.1087L19.152 89.8826L21.378 86.5593C21.5317 86.3298 21.4702 86.0193 21.2408 85.8656C21.0114 85.7119 20.7008 85.7733 20.5471 86.0028L18.0429 89.7416ZM1.09635 2.21997C25.2062 -2.54761 48.6159 13.1324 53.3835 37.2422L54.3645 37.0482C49.4898 12.3966 25.554 -3.63575 0.902363 1.23896L1.09635 2.21997ZM53.3835 37.2422C58.1511 61.352 42.4711 84.7617 18.3613 89.5293L18.5553 90.5103C43.2069 85.6356 59.2392 61.6998 54.3645 37.0482L53.3835 37.2422Z" fill="#8E99AD"/>
</svg>
